<svg xmlns="http://www.w3.org/2000/svg" viewBox="0 0 22 16" role="img" aria-label="United Kingdom flag">
  <rect width="22" height="16" fill="#012169"/>
  <!-- White diagonals -->
  <path d="M0 0 L2.2 0 L22 12.8 L22 16 L19.8 16 L0 3.2 Z" fill="#FFFFFF"/>
  <path d="M22 0 L19.8 0 L0 12.8 L0 16 L2.2 16 L22 3.2 Z" fill="#FFFFFF"/>
  <!-- Red diagonals -->
  <path d="M0 0 L1.2 0 L22 13.2 L22 16 L20.8 16 L0 2.8 Z" fill="#C8102E"/>
  <path d="M22 0 L20.8 0 L0 13.2 L0 16 L1.2 16 L22 2.8 Z" fill="#C8102E"/>
  <!-- White cross -->
  <rect x="9" width="4" height="16" fill="#FFFFFF"/>
  <rect y="6" width="22" height="4" fill="#FFFFFF"/>
  <!-- Red cross -->
  <rect x="9.7" width="2.6" height="16" fill="#C8102E"/>
  <rect y="6.7" width="22" height="2.6" fill="#C8102E"/>
</svg>
