<svg width="512" height="512" viewBox="0 0 512 512" fill="none" xmlns="http://www.w3.org/2000/svg">
<rect x="16" y="16" width="480" height="480" rx="69" fill="url(#paint0_linear_2359_266)"/>
<path d="M431.142 391.805C431.142 385.423 430.677 380.404 429.749 376.747C428.82 373.09 426.731 370.402 423.48 368.681C420.23 366.888 415.188 365.741 408.356 365.239C401.523 364.665 392.17 364.271 380.296 364.056L324.974 363.195C311.309 362.98 300.33 362.084 292.038 360.507C283.747 358.929 277.478 356.455 273.233 353.085C268.987 349.644 266.135 345.055 264.675 339.318C263.282 333.582 262.586 326.412 262.586 317.808C262.586 308.415 263.548 300.671 265.471 294.576C267.462 288.481 271.01 283.713 276.118 280.271C281.292 276.83 288.589 274.427 298.009 273.065C307.428 271.631 319.6 270.914 334.526 270.914H377.112C390.645 270.914 401.921 271.38 410.943 272.312C419.964 273.244 427.129 275.395 432.435 278.766C437.742 282.136 441.523 287.37 443.779 294.468C446.1 301.567 447.261 311.319 447.261 323.723H428.157C428.157 314.115 427.294 306.873 425.57 301.997C423.911 297.05 421.125 293.68 417.212 291.887C413.364 290.095 408.157 289.127 401.59 288.983C395.023 288.84 386.864 288.768 377.112 288.768H335.521C323.647 288.768 314.128 289.019 306.964 289.521C299.866 290.023 294.493 291.17 290.844 292.963C287.196 294.755 284.742 297.623 283.481 301.567C282.287 305.511 281.69 310.924 281.69 317.808C281.69 323.616 282.121 328.276 282.984 331.79C283.846 335.303 285.77 337.992 288.755 339.856C291.806 341.649 296.483 342.904 302.785 343.621C309.086 344.266 317.677 344.66 328.556 344.804L387.859 345.664C401.789 345.879 412.9 346.775 421.192 348.353C429.55 349.859 435.785 352.332 439.898 355.774C444.077 359.216 446.83 363.877 448.157 369.756C449.55 375.564 450.246 382.914 450.246 391.805C450.246 401.485 449.384 409.623 447.659 416.22C446.001 422.744 442.75 427.979 437.908 431.922C433.066 435.866 426.067 438.698 416.913 440.419C407.759 442.14 395.719 443 380.794 443H334.227C320.629 443 309.219 442.355 299.999 441.064C290.778 439.774 283.415 437.193 277.909 433.321C272.47 429.377 268.556 423.533 266.168 415.789C263.78 408.045 262.586 397.72 262.586 384.814H281.69C281.69 394.924 282.453 402.739 283.979 408.261C285.504 413.782 288.158 417.761 291.939 420.199C295.786 422.565 301.126 423.999 307.959 424.501C314.857 424.931 323.614 425.146 334.227 425.146H379.799C391.673 425.146 401.059 424.752 407.958 423.963C414.857 423.103 419.964 421.525 423.281 419.231C426.598 416.865 428.721 413.495 429.649 409.121C430.644 404.747 431.142 398.975 431.142 391.805Z" fill="white"/>
<path d="M67.875 439.558V274.355H86.9793V346.632H112.352L211.157 274.355H239.814L131.556 355.236L242.998 439.558H214.341L112.452 363.84H86.9793V439.558H67.875Z" fill="white"/>
<path d="M278.414 197.742C278.414 188.134 279.243 180.067 280.902 173.542C282.56 167.018 285.744 161.783 290.454 157.84C295.164 153.896 301.996 151.064 310.951 149.343C319.973 147.55 331.78 146.618 346.374 146.546H381.995C392.344 146.546 400.403 146.188 406.174 145.471C412.012 144.682 416.257 143.248 418.91 141.169C421.564 139.018 423.189 135.934 423.786 131.919C424.449 127.832 424.781 122.49 424.781 115.894C424.781 109.01 424.184 103.597 422.99 99.6529C421.796 95.7092 419.441 92.8411 415.925 91.0486C412.41 89.256 407.202 88.1088 400.304 87.6068C393.471 87.1049 384.383 86.854 373.04 86.854H351.349C339.475 86.854 329.956 87.1049 322.792 87.6068C315.694 88.1088 310.321 89.256 306.673 91.0486C303.024 92.8411 300.57 95.7092 299.309 99.6529C298.115 103.597 297.518 109.01 297.518 115.894H278.414C278.414 106.5 279.376 98.7566 281.3 92.6619C283.29 86.5672 286.839 81.7989 291.946 78.3572C297.12 74.9155 304.417 72.5134 313.837 71.1511C323.256 69.717 335.429 69 350.354 69H374.035C388.43 69 400.204 69.717 409.358 71.1511C418.512 72.5134 425.577 74.9155 430.552 78.3572C435.594 81.7989 439.076 86.5672 441 92.6619C442.924 98.7566 443.885 106.5 443.885 115.894C443.885 127.94 442.393 137.476 439.408 144.503C436.489 151.458 431.315 156.441 423.886 159.453C416.522 162.393 406.108 163.863 392.642 163.863H348.861C336.987 163.863 327.601 164.293 320.702 165.153C313.803 166.014 308.696 167.663 305.379 170.101C302.062 172.467 299.906 175.873 298.911 180.318C297.983 184.764 297.518 190.572 297.518 197.742V220.436H437.816V237.645H278.414V197.742Z" fill="white"/>
<path d="M230.556 189.891C230.556 183.509 230.092 178.49 229.163 174.833C228.234 171.176 226.145 168.487 222.894 166.767C219.644 164.974 214.602 163.827 207.77 163.325C200.938 162.751 191.584 162.357 179.711 162.142L124.388 161.281C110.723 161.066 99.7443 160.17 91.4525 158.592C83.1607 157.015 76.8921 154.541 72.6467 151.171C68.4013 147.73 65.5489 143.141 64.0895 137.404C62.6965 131.668 62 124.498 62 115.894C62 106.5 62.9618 98.7566 64.8855 92.6619C66.8756 86.5672 70.4245 81.7989 75.5322 78.3572C80.7063 74.9155 88.0031 72.5134 97.4226 71.1511C106.842 69.717 119.014 69 133.94 69H176.526C190.059 69 201.336 69.4661 210.357 70.3982C219.379 71.3303 226.543 73.4814 231.849 76.8514C237.156 80.2215 240.937 85.4558 243.193 92.5543C245.514 99.6529 246.675 109.404 246.675 121.809H227.571C227.571 112.201 226.708 104.959 224.984 100.083C223.325 95.1356 220.539 91.7656 216.626 89.973C212.778 88.1805 207.571 87.2125 201.004 87.0691C194.437 86.9257 186.278 86.854 176.526 86.854H134.935C123.061 86.854 113.542 87.1049 106.378 87.6068C99.28 88.1088 93.9069 89.256 90.2585 91.0486C86.6101 92.8411 84.1557 95.7092 82.8954 99.6529C81.7013 103.597 81.1043 109.01 81.1043 115.894C81.1043 121.701 81.5355 126.362 82.3978 129.876C83.2602 133.389 85.1839 136.078 88.1689 137.942C91.2203 139.735 95.8969 140.989 102.199 141.706C108.5 142.352 117.091 142.746 127.97 142.89L187.273 143.75C201.203 143.965 212.314 144.861 220.606 146.439C228.964 147.945 235.199 150.418 239.312 153.86C243.491 157.302 246.244 161.962 247.571 167.842C248.964 173.65 249.66 181 249.66 189.891C249.66 199.571 248.798 207.709 247.073 214.305C245.415 220.83 242.164 226.065 237.322 230.008C232.48 233.952 225.481 236.784 216.327 238.505C207.173 240.226 195.133 241.086 180.208 241.086H133.641C120.043 241.086 108.633 240.441 99.4126 239.15C90.1921 237.86 82.829 235.278 77.3233 231.407C71.8838 227.463 67.9701 221.619 65.5821 213.875C63.194 206.131 62 195.806 62 182.9H81.1043C81.1043 193.01 81.8672 200.825 83.3929 206.346C84.9186 211.868 87.5719 215.847 91.353 218.285C95.2004 220.651 100.54 222.085 107.373 222.587C114.272 223.017 123.028 223.232 133.641 223.232H179.213C191.087 223.232 200.473 222.838 207.372 222.049C214.271 221.189 219.379 219.611 222.695 217.317C226.012 214.951 228.135 211.581 229.063 207.207C230.058 202.833 230.556 197.061 230.556 189.891Z" fill="white"/>
<defs>
<linearGradient id="paint0_linear_2359_266" x1="256" y1="16" x2="256" y2="496" gradientUnits="userSpaceOnUse">
<stop stop-color="#00976A"/>
<stop offset="0.985577" stop-color="#786BF7"/>
</linearGradient>
</defs>
</svg>
