<?xml version="1.0" encoding="UTF-8"?><svg id="a" xmlns="http://www.w3.org/2000/svg" xmlns:xlink="http://www.w3.org/1999/xlink" viewBox="0 0 386.858 398.1602">
<title>Pump_Fun-logo - brandlogos.net</title><defs><mask id="b" x="0" y="107.6423" width="292.1095" height="290.5179" maskUnits="userSpaceOnUse"><g id="c"><path d="M52.9915,351.1383c-45.551-42.255-48.224-113.436-5.97-158.987l67.668-72.948,164.957,153.017-67.668,72.948c-42.254,45.551-113.435,48.224-158.987,5.97Z" style="fill:#fff;"/></g></mask></defs><rect x="-8.5712" y="86.5815" width="421" height="208" rx="104" ry="104" transform="translate(-75.1215 209.012) rotate(-47.15)" style="fill:#fff; stroke:#1d3934; stroke-miterlimit:4; stroke-width:17px;"/><path d="M47.0215,192.1513c-42.254,45.551-39.581,116.732,5.97,158.987,45.552,42.254,116.733,39.581,158.987-5.97l77.189-83.212L124.2105,108.9393l-77.189,83.212h0ZM88.8315,236.0273c1.3915-1.7159,1.1284-4.235-.5875-5.6265-1.716-1.3915-4.235-1.1284-5.6265.5875l-4.734,5.839c-1.4062,1.7038-1.1648,4.225.539,5.6311,1.7038,1.4062,4.225,1.1649,5.6311-.539.0148-.0179.0294-.036.0439-.0541l4.734-5.838h0ZM77.1325,258.7703c.4191-2.169-.9996-4.2671-3.1686-4.6862s-4.2671.9996-4.6861,3.1686c-.0032.0165-.0063.033-.0093.0496-2.181,11.687-1.381,23.307,2.031,33.748.7028,2.0944,2.9703,3.2225,5.0647,2.5198,2.0711-.6949,3.2016-2.923,2.5393-5.0048-2.984-9.132-3.713-19.39-1.771-29.795h0ZM86.8015,305.4423c-1.5384-1.5856-4.0709-1.6239-5.6565-.0855-1.5856,1.5384-1.6239,4.0709-.0855,5.6565h0l6.625,6.827c1.5384,1.5856,4.0709,1.6239,5.6565.0855,1.5856-1.5384,1.6239-4.0709.0855-5.6565l-6.625-6.827Z" style="fill:#5fcb88; fill-rule:evenodd;"/><path d="M17.1265,263.2903c5.149,16.929,14.712,32.762,28.62,45.663,41.908,38.875,107.395,36.416,146.269-5.492l127.174-137.098c38.874-41.907,36.415-107.393-5.493-146.268-9.286-8.614-19.73-15.198-30.786-19.774,24.491,1.852,48.549,11.7,67.955,29.7,45.551,42.255,48.224,113.436,5.97,158.987l-144.857,156.16c-42.254,45.551-113.435,48.224-158.987,5.97-25.305-23.474-37.377-55.874-35.865-87.848Z" style="fill:rgba(98,147,147,.4); fill-rule:evenodd;"/><path d="M350.6035,183.2283l-71.408,76.98L126.7015,118.7523l71.408-76.98C237.1715-.3377,302.9745-2.8077,345.0845,36.2533c42.11,39.062,44.581,104.865,5.519,146.975h0Z" style="fill:none; stroke:#1d3934; stroke-width:17px;"/><g style="mask:url(#b);"><path d="M41.4305,363.6013c-52.435-48.639-55.511-130.577-6.872-183.012l67.668-72.947,24.926,23.122-67.667,72.948c-35.87,38.668-33.6,99.093,5.068,134.962,0,0-23.123,24.927-23.123,24.927ZM292.1095,283.7813l-67.667,72.948c-48.64,52.435-130.577,55.512-183.012,6.872l23.123-24.927c38.668,35.87,99.093,33.601,134.962-5.068l67.668-72.947,24.926,23.122h0ZM224.4425,356.7293c-48.64,52.435-130.577,55.512-183.012,6.872-52.435-48.639-55.511-130.577-6.872-183.012l24.927,23.123c-35.87,38.668-33.6,99.093,5.068,134.962,38.668,35.87,99.093,33.601,134.962-5.068l24.927,23.123h0ZM114.6895,119.2033l164.957,153.017L114.6895,119.2033Z" style="fill:#1d3934;"/></g></svg>